<?xml version="1.0" encoding="utf-8"?>
<!-- Generator: Adobe Illustrator 16.0.0, SVG Export Plug-In . SVG Version: 6.00 Build 0)  -->
<!DOCTYPE svg PUBLIC "-//W3C//DTD SVG 1.1//EN" "http://www.w3.org/Graphics/SVG/1.1/DTD/svg11.dtd">
<svg version="1.1" id="Layer_6" xmlns="http://www.w3.org/2000/svg" xmlns:xlink="http://www.w3.org/1999/xlink" x="0px" y="0px"
	 width="1977.356px" height="1176.539px" viewBox="0 0 1977.356 1176.539" enable-background="new 0 0 1977.356 1176.539"
	 xml:space="preserve">
<g>
	<path d="M835.339,799.642l89.095-224.78H876.72l111.121-280.348l111.116,280.348h-47.705l89.093,224.78h-112.761l6.244,105.206
		h355.768l-87.152-618.252c42.289,2.508,84.714,5.271,127.348,8.1c-9-95.179-24.391-190.072-32.548-285.296
		c-41.566-1.926-82.992-3.523-124.337-4.866c1.693,31.695,3.913,63.512,6.461,95.604c-34.554-1.814-68.948-3.343-103.236-4.546
		c-1.561-31.588-2.891-62.769-3.896-93.755c-44.786-0.943-89.513-1.578-134.212-1.836c0.258,30.514,0.599,61.26,1.006,92.485
		c-34.133-0.337-68.238-0.339-102.376,0c0.408-31.226,0.749-61.972,1.008-92.485c-44.698,0.258-89.423,0.893-134.207,1.836
		c-1.008,30.986-2.338,62.167-3.898,93.755c-34.288,1.203-68.683,2.731-103.228,4.546c2.541-32.094,4.761-63.908,6.455-95.604
		c-41.347,1.343-82.773,2.94-124.339,4.866c-8.158,95.224-23.554,190.12-32.548,285.296c42.634-2.828,85.06-5.592,127.348-8.1
		L586.09,904.848h355.762l6.244-105.206H835.339z"/>
	<path d="M89.433,1039.637c19.898,0,34.283,9.59,41.956,25.172l36.919-18.22c-14.383-28.049-43.153-45.552-78.875-45.552
		c-52.024-0.719-90.142,39.799-89.423,87.746c-0.718,47.947,37.399,88.465,89.423,87.746c35.722,0,64.492-17.501,78.875-45.552
		l-36.919-18.22c-7.673,15.584-22.058,25.172-41.956,25.172c-29.966,0-47.708-23.015-47.708-49.146
		C41.726,1062.65,59.467,1039.637,89.433,1039.637z"/>
	<rect x="193.479" y="1004.873" width="40.996" height="167.82"/>
	<polygon points="395.578,1004.873 259.644,1004.873 259.644,1041.794 307.113,1041.794 307.113,1172.693 348.109,1172.693 
		348.109,1041.794 395.578,1041.794 	"/>
	<path d="M456.469,1004.154l-70.724,168.539h43.393l10.308-25.412h63.771l10.549,25.412h43.395l-70.964-168.539H456.469z
		 M452.155,1113.477l19.178-47.707l19.42,47.707H452.155z"/>
	<path d="M647.538,1004.873h-69.045v167.82h69.045c51.546,0,87.027-34.283,87.027-83.91S699.083,1004.873,647.538,1004.873z
		 M642.745,1135.054h-23.257v-92.541h23.257c32.844,0,50.104,17.501,50.104,46.511
		C692.849,1118.031,675.588,1135.054,642.745,1135.054z"/>
	<polygon points="764.53,1172.693 879.845,1172.693 879.845,1134.813 805.285,1134.813 805.285,1105.325 872.653,1105.325 
		872.653,1071.522 805.285,1071.522 805.285,1042.753 879.845,1042.753 879.845,1004.873 764.53,1004.873 	"/>
	<polygon points="953.44,1004.873 912.445,1004.873 912.445,1172.693 1024.644,1172.693 1024.644,1135.054 953.44,1135.054 	"/>
	<polygon points="1076.667,1041.794 1124.135,1041.794 1124.135,1172.693 1165.131,1172.693 1165.131,1041.794 1212.6,1041.794 
		1212.6,1004.873 1076.667,1004.873 	"/>
	<rect x="1237.528" y="1004.873" width="40.995" height="167.82"/>
	<polygon points="1405.105,1069.844 1345.648,1003.675 1316.4,1003.675 1316.4,1172.693 1357.155,1172.693 1357.155,1075.119 
		1405.105,1125.224 1453.052,1075.119 1453.052,1172.693 1493.81,1172.693 1493.81,1003.675 1464.799,1003.675 	"/>
	<path d="M1638.611,1081.591c8.39-6.472,14.383-17.501,14.383-31.886c0-27.569-22.296-44.832-52.502-44.832h-68.326v167.82h79.833
		c32.366,0,54.902-20.379,54.902-49.146C1666.901,1102.688,1654.673,1087.584,1638.611,1081.591z M1572.442,1039.396h21.575
		c12.228,0,18.94,6.473,18.94,16.063s-6.713,16.063-18.94,16.063h-21.575V1039.396z M1605.764,1137.93h-33.322v-33.085h33.322
		c12.709,0,20.379,6.234,20.379,16.542C1626.143,1132.176,1618.951,1137.93,1605.764,1137.93z"/>
	<polygon points="1695.186,1172.693 1810.501,1172.693 1810.501,1134.813 1735.941,1134.813 1735.941,1105.325 1803.309,1105.325 
		1803.309,1071.522 1735.941,1071.522 1735.941,1042.753 1810.501,1042.753 1810.501,1004.873 1695.186,1004.873 	"/>
	<path d="M1932.764,1104.127c23.255-6.713,38.36-22.776,38.36-47.708c0-34.045-28.052-51.546-63.771-51.546h-64.492v167.82h40.276
		v-76.237l47.948,76.237h46.271L1932.764,1104.127z M1905.194,1076.077h-22.057v-37.399h22.057c14.385,0,24.692,6.232,24.692,18.7
		C1929.886,1069.844,1919.579,1076.077,1905.194,1076.077z"/>
</g>
</svg>
